<?xml version="1.0" standalone="no"?>
<!DOCTYPE svg PUBLIC "-//W3C//DTD SVG 20010904//EN"
 "http://www.w3.org/TR/2001/REC-SVG-20010904/DTD/svg10.dtd">
<svg version="1.0" xmlns="http://www.w3.org/2000/svg"
 width="472.000000pt" height="472.000000pt" viewBox="0 0 472.000000 472.000000"
 preserveAspectRatio="xMidYMid meet">
<metadata>
Created by potrace 1.11, written by Peter Selinger 2001-2013
</metadata>
<g transform="translate(0.000000,472.000000) scale(0.100000,-0.100000)"
fill="#000000" stroke="none">
<path d="M2317 4665 c-16 -16 -72 -74 -124 -128 l-95 -99 7 -51 c9 -75 14
-116 20 -167 3 -25 7 -62 10 -82 3 -21 7 -56 10 -78 3 -22 7 -58 10 -80 3 -22
7 -57 10 -77 3 -21 12 -99 20 -173 9 -74 17 -146 20 -160 14 -90 13 -94 -30
-101 -22 -4 -43 -4 -47 -1 -5 6 -26 109 -62 317 -3 17 -8 39 -10 50 -5 27 -14
99 -20 155 -7 60 -25 225 -31 274 -3 22 -6 41 -8 42 -2 2 -38 -31 -80 -74
l-76 -78 40 -135 c68 -230 150 -575 137 -583 -2 -1 -41 -17 -88 -35 -47 -18
-96 -40 -109 -49 -23 -14 -25 -13 -45 14 -12 15 -25 36 -31 46 -5 10 -33 55
-61 100 -47 76 -133 236 -214 398 -18 36 -34 67 -36 68 -5 7 -224 20 -224 14
0 -2 55 -76 121 -165 67 -88 169 -233 226 -321 58 -89 114 -174 126 -190 l20
-30 -33 -27 -33 -28 -46 58 c-25 32 -56 71 -68 87 -13 16 -127 162 -256 324
-205 259 -236 294 -262 296 -17 1 -96 5 -177 9 -139 7 -146 6 -142 -12 2 -10
5 -89 7 -175 3 -181 -10 -153 132 -263 50 -38 92 -72 95 -75 3 -3 125 -99 272
-214 l268 -208 -27 -37 -27 -38 -71 49 c-38 27 -114 79 -167 115 -54 36 -176
128 -270 204 -95 76 -176 139 -180 139 -4 0 -6 -47 -4 -105 3 -98 13 -135 37
-135 28 0 484 -271 597 -355 1 -1 -13 -35 -32 -76 -19 -41 -40 -93 -47 -116
-6 -24 -18 -43 -25 -43 -38 0 -323 77 -498 134 -153 50 -202 62 -211 53 -19
-19 -76 -69 -118 -104 -26 -22 -34 -35 -25 -38 7 -2 83 -14 168 -25 176 -24
205 -28 240 -35 14 -3 34 -7 45 -9 127 -24 372 -80 378 -86 5 -4 5 -24 1 -44
l-6 -37 -52 6 c-28 4 -62 8 -76 10 -14 2 -50 6 -80 10 -30 3 -71 8 -90 10 -19
2 -57 7 -85 10 -27 3 -61 7 -75 9 -14 3 -52 7 -85 11 -33 3 -71 7 -85 10 -14
2 -46 7 -72 10 -66 7 -133 15 -202 24 l-59 8 -106 -96 c-58 -52 -116 -105
-129 -116 l-24 -20 129 -123 128 -123 60 6 c33 3 73 8 89 10 16 2 59 6 94 10
36 3 68 8 71 9 3 2 38 7 77 10 39 4 80 8 90 10 11 2 51 7 89 11 39 4 77 8 85
10 8 1 42 6 75 9 33 4 76 9 95 11 102 13 140 15 140 8 1 -5 3 -25 6 -45 6 -43
16 -38 -131 -64 -265 -46 -319 -54 -415 -64 -58 -6 -119 -13 -135 -14 -17 -2
-61 -7 -99 -11 l-69 -8 82 -79 c65 -61 87 -77 103 -72 41 13 154 45 171 49 9
2 65 18 125 34 166 47 390 90 400 77 4 -6 14 -29 21 -51 7 -22 27 -68 43 -103
17 -35 29 -64 27 -66 -2 -2 -60 -41 -129 -88 -122 -83 -218 -141 -410 -248
-52 -29 -97 -54 -99 -56 -5 -5 -12 -224 -7 -224 3 0 108 84 252 201 38 32 155
118 259 193 l190 135 23 -27 c12 -15 21 -32 20 -38 -2 -6 -70 -68 -153 -139
-82 -70 -166 -142 -186 -159 -20 -17 -118 -101 -217 -186 -179 -152 -182 -156
-182 -195 -1 -22 -2 -98 -2 -170 l-2 -130 70 1 c79 0 286 12 289 16 1 2 127
176 279 388 152 212 282 386 289 387 21 4 60 -35 53 -53 -15 -40 -239 -382
-336 -514 -59 -80 -115 -157 -124 -172 l-18 -27 44 4 c23 2 74 7 112 10 39 3
70 7 71 8 1 1 48 94 104 206 77 155 223 416 245 438 1 1 33 -13 72 -31 38 -19
89 -40 113 -47 23 -7 45 -19 48 -26 9 -24 -45 -267 -110 -491 l-63 -220 77
-80 78 -80 7 57 c3 31 8 64 10 73 1 9 5 48 9 85 6 66 9 94 21 178 5 38 31 186
53 305 17 91 19 104 20 128 1 18 7 22 34 22 52 0 59 -10 53 -71 -3 -30 -8 -85
-11 -124 -3 -38 -8 -88 -10 -110 -5 -47 -14 -151 -19 -215 -5 -49 -15 -162
-21 -225 -2 -22 -7 -75 -10 -117 -4 -42 -8 -83 -8 -91 -1 -8 51 -71 117 -139
110 -117 120 -124 135 -109 9 10 54 60 101 112 47 51 93 103 103 114 15 17 17
30 11 80 -3 33 -8 69 -10 80 -3 11 -7 36 -9 55 -7 44 -13 87 -19 125 -3 17
-12 80 -21 140 -8 61 -20 135 -25 165 -5 30 -12 78 -16 105 -3 28 -8 59 -10
70 -2 11 -7 40 -10 65 -3 25 -8 53 -9 62 -3 13 6 18 41 24 25 3 47 5 48 3 4
-4 33 -139 61 -279 28 -144 36 -187 45 -260 10 -80 24 -184 36 -257 l5 -32 75
84 c63 71 74 89 68 107 -5 13 -8 25 -9 28 0 3 -13 41 -27 85 -69 212 -148 501
-148 544 0 5 15 14 33 19 17 5 72 26 120 47 48 21 89 36 91 34 37 -46 185
-292 269 -447 l109 -202 52 0 c28 -1 77 -2 109 -4 31 -2 57 -1 57 3 0 3 -41
58 -91 121 -137 174 -185 240 -308 422 l-113 168 23 20 c13 10 29 19 35 20 7
0 48 -44 92 -97 44 -54 88 -108 98 -119 11 -12 113 -134 228 -273 115 -138
209 -251 210 -252 10 -6 357 -8 353 -2 -5 8 -17 188 -19 286 l-1 59 -116 86
c-64 48 -118 89 -121 92 -3 3 -21 17 -40 30 -19 13 -138 101 -265 194 -126 93
-231 171 -233 172 -6 4 43 74 51 74 17 0 390 -252 536 -363 144 -110 179 -128
167 -89 -3 10 -7 54 -8 100 -2 46 -7 87 -13 91 -5 5 -76 42 -156 84 -206 106
-469 259 -469 272 0 2 16 36 35 77 19 40 42 98 51 129 l16 56 136 -29 c133
-28 260 -63 485 -134 l109 -34 79 72 c43 40 79 75 79 78 0 4 -44 12 -99 19
-54 6 -109 14 -122 16 -13 2 -48 6 -78 9 -54 6 -158 22 -196 30 -17 4 -167 35
-255 53 -14 2 -43 8 -65 12 -39 6 -40 8 -40 46 0 38 2 40 30 39 35 0 182 -13
216 -19 13 -2 56 -7 94 -10 108 -11 116 -12 185 -19 36 -4 79 -8 95 -11 17 -2
63 -6 104 -10 41 -4 82 -8 90 -10 9 -2 52 -6 96 -9 l80 -6 66 62 c36 35 92 87
124 117 l59 53 -50 46 c-27 25 -86 81 -132 124 -46 43 -86 77 -90 74 -4 -2
-29 -6 -57 -10 -109 -14 -178 -23 -235 -31 -14 -2 -47 -6 -75 -9 -64 -8 -135
-18 -159 -22 -10 -2 -44 -6 -75 -10 -31 -3 -64 -8 -75 -10 -10 -2 -44 -6 -75
-10 -31 -3 -65 -8 -76 -10 -11 -2 -48 -7 -81 -10 l-62 -7 -7 42 c-4 23 -5 44
-3 45 3 3 298 61 358 71 19 3 42 8 50 10 20 5 71 12 145 20 33 4 69 8 80 10
11 1 69 9 128 16 l108 13 -38 35 c-21 19 -58 54 -83 78 l-46 43 -124 -39
c-204 -63 -338 -99 -469 -126 -68 -14 -127 -25 -131 -25 -4 0 -15 21 -25 48
-10 26 -31 75 -47 110 -16 35 -28 65 -26 67 9 8 239 155 243 155 2 0 27 13 54
29 60 36 274 150 319 170 29 14 32 19 33 61 1 25 2 75 4 113 2 37 2 67 1 67
-2 0 -302 -228 -351 -267 -6 -4 -90 -61 -187 -125 l-176 -117 -25 33 -25 32
85 70 c114 92 99 80 387 312 138 112 261 211 272 221 18 15 22 31 23 87 1 38
4 115 6 172 l6 104 -113 -6 c-62 -2 -143 -5 -179 -5 l-66 -1 -119 -157 c-66
-87 -123 -163 -129 -169 -5 -6 -20 -24 -32 -40 -12 -16 -87 -116 -168 -221
l-147 -193 -34 26 c-19 15 -34 29 -34 31 0 17 264 394 372 531 70 89 128 165
128 168 0 3 -50 3 -111 1 -105 -4 -128 -11 -129 -38 0 -5 -40 -80 -132 -248
-48 -88 -66 -118 -146 -242 l-74 -117 -72 33 c-39 17 -95 40 -124 49 -40 14
-52 22 -48 34 2 10 14 62 27 117 26 120 125 454 165 560 6 15 -136 179 -146
168 -4 -4 -14 -69 -24 -143 -18 -140 -22 -168 -32 -222 -3 -18 -9 -53 -13 -78
-14 -81 -73 -354 -81 -376 -7 -17 -15 -19 -45 -16 l-37 4 6 87 c4 47 9 95 11
106 2 11 7 43 10 70 3 28 10 84 15 125 5 41 12 104 16 140 3 36 8 74 10 85 2
11 7 48 9 81 3 34 7 71 10 82 2 12 7 52 10 89 4 37 9 75 10 84 2 9 -4 25 -13
36 -52 58 -199 219 -207 228 -7 7 -19 1 -38 -20z"/>
</g>
</svg>
